<mxfile host="app.diagrams.net" agent="Mozilla/5.0 (Windows NT 10.0; Win64; x64; rv:134.0) Gecko/20100101 Firefox/134.0" version="26.0.7">
  <diagram name="Page-1" id="3pTntpdIM-WL-n7m3Xo2">
    <mxGraphModel dx="1222" dy="594" grid="1" gridSize="10" guides="1" tooltips="1" connect="1" arrows="1" fold="1" page="1" pageScale="1" pageWidth="850" pageHeight="1100" math="0" shadow="0">
      <root>
        <mxCell id="0" />
        <mxCell id="1" parent="0" />
        <mxCell id="xj7CRVUtzKx-C04npIz_-19" style="rounded=0;orthogonalLoop=1;jettySize=auto;html=1;exitX=0.5;exitY=0.5;exitDx=0;exitDy=0;exitPerimeter=0;entryX=0;entryY=0.5;entryDx=0;entryDy=0;" edge="1" parent="1" source="xj7CRVUtzKx-C04npIz_-1" target="xj7CRVUtzKx-C04npIz_-4">
          <mxGeometry relative="1" as="geometry" />
        </mxCell>
        <mxCell id="xj7CRVUtzKx-C04npIz_-20" style="edgeStyle=none;rounded=0;orthogonalLoop=1;jettySize=auto;html=1;exitX=0.5;exitY=0.5;exitDx=0;exitDy=0;exitPerimeter=0;entryX=0;entryY=0.5;entryDx=0;entryDy=0;" edge="1" parent="1" source="xj7CRVUtzKx-C04npIz_-1" target="xj7CRVUtzKx-C04npIz_-5">
          <mxGeometry relative="1" as="geometry" />
        </mxCell>
        <mxCell id="xj7CRVUtzKx-C04npIz_-33" style="edgeStyle=none;rounded=0;orthogonalLoop=1;jettySize=auto;html=1;exitX=0.5;exitY=0.5;exitDx=0;exitDy=0;exitPerimeter=0;entryX=0;entryY=0.5;entryDx=0;entryDy=0;" edge="1" parent="1" source="xj7CRVUtzKx-C04npIz_-1" target="xj7CRVUtzKx-C04npIz_-9">
          <mxGeometry relative="1" as="geometry" />
        </mxCell>
        <mxCell id="xj7CRVUtzKx-C04npIz_-1" value="Actor" style="shape=umlActor;verticalLabelPosition=bottom;verticalAlign=top;html=1;outlineConnect=0;" vertex="1" parent="1">
          <mxGeometry x="70" y="417" width="70" height="130" as="geometry" />
        </mxCell>
        <mxCell id="xj7CRVUtzKx-C04npIz_-2" value="LOGIN" style="ellipse;whiteSpace=wrap;html=1;" vertex="1" parent="1">
          <mxGeometry x="381" y="27" width="165" height="80" as="geometry" />
        </mxCell>
        <mxCell id="xj7CRVUtzKx-C04npIz_-3" value="mengelola Data User" style="ellipse;whiteSpace=wrap;html=1;" vertex="1" parent="1">
          <mxGeometry x="420" y="146" width="85" height="50" as="geometry" />
        </mxCell>
        <mxCell id="xj7CRVUtzKx-C04npIz_-4" value="mengelola Data Karyawan" style="ellipse;whiteSpace=wrap;html=1;" vertex="1" parent="1">
          <mxGeometry x="412" y="248" width="95" height="50" as="geometry" />
        </mxCell>
        <mxCell id="xj7CRVUtzKx-C04npIz_-5" value="Ubah Password" style="ellipse;whiteSpace=wrap;html=1;" vertex="1" parent="1">
          <mxGeometry x="413" y="365" width="95" height="50" as="geometry" />
        </mxCell>
        <mxCell id="xj7CRVUtzKx-C04npIz_-31" style="edgeStyle=none;rounded=0;orthogonalLoop=1;jettySize=auto;html=1;exitX=0;exitY=1;exitDx=0;exitDy=0;entryX=0.5;entryY=0;entryDx=0;entryDy=0;dashed=1;" edge="1" parent="1" source="xj7CRVUtzKx-C04npIz_-6" target="xj7CRVUtzKx-C04npIz_-7">
          <mxGeometry relative="1" as="geometry" />
        </mxCell>
        <mxCell id="xj7CRVUtzKx-C04npIz_-32" style="edgeStyle=none;rounded=0;orthogonalLoop=1;jettySize=auto;html=1;exitX=1;exitY=1;exitDx=0;exitDy=0;entryX=0.5;entryY=0;entryDx=0;entryDy=0;dashed=1;" edge="1" parent="1" source="xj7CRVUtzKx-C04npIz_-6" target="xj7CRVUtzKx-C04npIz_-8">
          <mxGeometry relative="1" as="geometry" />
        </mxCell>
        <mxCell id="xj7CRVUtzKx-C04npIz_-6" value="bobot Kriteria" style="ellipse;whiteSpace=wrap;html=1;" vertex="1" parent="1">
          <mxGeometry x="412" y="487" width="95" height="60" as="geometry" />
        </mxCell>
        <mxCell id="xj7CRVUtzKx-C04npIz_-35" style="edgeStyle=none;rounded=0;orthogonalLoop=1;jettySize=auto;html=1;exitX=0.5;exitY=1;exitDx=0;exitDy=0;entryX=0;entryY=0;entryDx=0;entryDy=0;dashed=1;" edge="1" parent="1" source="xj7CRVUtzKx-C04npIz_-7" target="xj7CRVUtzKx-C04npIz_-9">
          <mxGeometry relative="1" as="geometry" />
        </mxCell>
        <mxCell id="xj7CRVUtzKx-C04npIz_-7" value="AHP" style="ellipse;whiteSpace=wrap;html=1;" vertex="1" parent="1">
          <mxGeometry x="322" y="590" width="90" height="50" as="geometry" />
        </mxCell>
        <mxCell id="xj7CRVUtzKx-C04npIz_-34" style="edgeStyle=none;rounded=0;orthogonalLoop=1;jettySize=auto;html=1;exitX=0.5;exitY=1;exitDx=0;exitDy=0;entryX=1;entryY=0;entryDx=0;entryDy=0;dashed=1;" edge="1" parent="1" source="xj7CRVUtzKx-C04npIz_-8" target="xj7CRVUtzKx-C04npIz_-9">
          <mxGeometry relative="1" as="geometry" />
        </mxCell>
        <mxCell id="xj7CRVUtzKx-C04npIz_-8" value="TOPSIS" style="ellipse;whiteSpace=wrap;html=1;" vertex="1" parent="1">
          <mxGeometry x="507" y="590" width="90" height="50" as="geometry" />
        </mxCell>
        <mxCell id="xj7CRVUtzKx-C04npIz_-9" value="Penilaian" style="ellipse;whiteSpace=wrap;html=1;" vertex="1" parent="1">
          <mxGeometry x="401.75" y="670" width="107.5" height="60" as="geometry" />
        </mxCell>
        <mxCell id="xj7CRVUtzKx-C04npIz_-30" style="edgeStyle=none;rounded=0;orthogonalLoop=1;jettySize=auto;html=1;exitX=0;exitY=0;exitDx=0;exitDy=0;entryX=1;entryY=1;entryDx=0;entryDy=0;dashed=1;" edge="1" parent="1" source="xj7CRVUtzKx-C04npIz_-10" target="xj7CRVUtzKx-C04npIz_-9">
          <mxGeometry relative="1" as="geometry" />
        </mxCell>
        <mxCell id="xj7CRVUtzKx-C04npIz_-10" value="Persetujuan" style="ellipse;whiteSpace=wrap;html=1;" vertex="1" parent="1">
          <mxGeometry x="504.5" y="790" width="95" height="60" as="geometry" />
        </mxCell>
        <mxCell id="xj7CRVUtzKx-C04npIz_-28" style="edgeStyle=none;rounded=0;orthogonalLoop=1;jettySize=auto;html=1;exitX=0.5;exitY=0;exitDx=0;exitDy=0;entryX=0;entryY=1;entryDx=0;entryDy=0;dashed=1;" edge="1" parent="1" source="xj7CRVUtzKx-C04npIz_-11" target="xj7CRVUtzKx-C04npIz_-9">
          <mxGeometry relative="1" as="geometry" />
        </mxCell>
        <mxCell id="xj7CRVUtzKx-C04npIz_-11" value="Analisa Perbandingan" style="ellipse;whiteSpace=wrap;html=1;" vertex="1" parent="1">
          <mxGeometry x="317" y="790" width="100" height="60" as="geometry" />
        </mxCell>
        <mxCell id="xj7CRVUtzKx-C04npIz_-13" value="LOGOUT" style="ellipse;whiteSpace=wrap;html=1;" vertex="1" parent="1">
          <mxGeometry x="388" y="990" width="165" height="80" as="geometry" />
        </mxCell>
        <mxCell id="xj7CRVUtzKx-C04npIz_-29" style="edgeStyle=none;rounded=0;orthogonalLoop=1;jettySize=auto;html=1;exitX=0.5;exitY=0;exitDx=0;exitDy=0;entryX=0.5;entryY=1;entryDx=0;entryDy=0;dashed=1;" edge="1" parent="1" source="xj7CRVUtzKx-C04npIz_-14" target="xj7CRVUtzKx-C04npIz_-9">
          <mxGeometry relative="1" as="geometry" />
        </mxCell>
        <mxCell id="xj7CRVUtzKx-C04npIz_-14" value="Cetak Penilaian" style="ellipse;whiteSpace=wrap;html=1;" vertex="1" parent="1">
          <mxGeometry x="408" y="880" width="95" height="60" as="geometry" />
        </mxCell>
        <mxCell id="xj7CRVUtzKx-C04npIz_-15" value="&lt;font style=&quot;font-size: 24px;&quot;&gt;Manajer&lt;/font&gt;" style="text;html=1;align=center;verticalAlign=middle;resizable=0;points=[];autosize=1;strokeColor=none;fillColor=none;" vertex="1" parent="1">
          <mxGeometry x="50" y="567" width="110" height="40" as="geometry" />
        </mxCell>
        <mxCell id="xj7CRVUtzKx-C04npIz_-25" style="edgeStyle=none;rounded=0;orthogonalLoop=1;jettySize=auto;html=1;exitX=0.5;exitY=0.5;exitDx=0;exitDy=0;exitPerimeter=0;entryX=1;entryY=0.5;entryDx=0;entryDy=0;" edge="1" parent="1" source="xj7CRVUtzKx-C04npIz_-17" target="xj7CRVUtzKx-C04npIz_-3">
          <mxGeometry relative="1" as="geometry" />
        </mxCell>
        <mxCell id="xj7CRVUtzKx-C04npIz_-26" style="edgeStyle=none;rounded=0;orthogonalLoop=1;jettySize=auto;html=1;exitX=0.5;exitY=0.5;exitDx=0;exitDy=0;exitPerimeter=0;entryX=1;entryY=0.5;entryDx=0;entryDy=0;" edge="1" parent="1" source="xj7CRVUtzKx-C04npIz_-17" target="xj7CRVUtzKx-C04npIz_-5">
          <mxGeometry relative="1" as="geometry" />
        </mxCell>
        <mxCell id="xj7CRVUtzKx-C04npIz_-27" style="edgeStyle=none;rounded=0;orthogonalLoop=1;jettySize=auto;html=1;exitX=0.5;exitY=0.5;exitDx=0;exitDy=0;exitPerimeter=0;entryX=1;entryY=0.5;entryDx=0;entryDy=0;" edge="1" parent="1" source="xj7CRVUtzKx-C04npIz_-17" target="xj7CRVUtzKx-C04npIz_-13">
          <mxGeometry relative="1" as="geometry" />
        </mxCell>
        <mxCell id="xj7CRVUtzKx-C04npIz_-17" value="Actor" style="shape=umlActor;verticalLabelPosition=bottom;verticalAlign=top;html=1;outlineConnect=0;" vertex="1" parent="1">
          <mxGeometry x="690" y="160" width="70" height="130" as="geometry" />
        </mxCell>
        <mxCell id="xj7CRVUtzKx-C04npIz_-18" style="rounded=0;orthogonalLoop=1;jettySize=auto;html=1;exitX=0.5;exitY=0.5;exitDx=0;exitDy=0;exitPerimeter=0;entryX=0;entryY=1;entryDx=0;entryDy=0;" edge="1" parent="1" source="xj7CRVUtzKx-C04npIz_-1" target="xj7CRVUtzKx-C04npIz_-2">
          <mxGeometry relative="1" as="geometry" />
        </mxCell>
        <mxCell id="xj7CRVUtzKx-C04npIz_-21" style="edgeStyle=none;rounded=0;orthogonalLoop=1;jettySize=auto;html=1;exitX=0.5;exitY=0.5;exitDx=0;exitDy=0;exitPerimeter=0;entryX=0.066;entryY=0.701;entryDx=0;entryDy=0;entryPerimeter=0;" edge="1" parent="1" source="xj7CRVUtzKx-C04npIz_-1" target="xj7CRVUtzKx-C04npIz_-6">
          <mxGeometry relative="1" as="geometry" />
        </mxCell>
        <mxCell id="xj7CRVUtzKx-C04npIz_-22" style="edgeStyle=none;rounded=0;orthogonalLoop=1;jettySize=auto;html=1;exitX=0.5;exitY=0.5;exitDx=0;exitDy=0;exitPerimeter=0;entryX=0.041;entryY=0.241;entryDx=0;entryDy=0;entryPerimeter=0;" edge="1" parent="1" source="xj7CRVUtzKx-C04npIz_-1" target="xj7CRVUtzKx-C04npIz_-11">
          <mxGeometry relative="1" as="geometry" />
        </mxCell>
        <mxCell id="xj7CRVUtzKx-C04npIz_-23" style="edgeStyle=none;rounded=0;orthogonalLoop=1;jettySize=auto;html=1;exitX=0.5;exitY=0.5;exitDx=0;exitDy=0;exitPerimeter=0;entryX=0.051;entryY=0.392;entryDx=0;entryDy=0;entryPerimeter=0;" edge="1" parent="1" source="xj7CRVUtzKx-C04npIz_-1" target="xj7CRVUtzKx-C04npIz_-13">
          <mxGeometry relative="1" as="geometry" />
        </mxCell>
        <mxCell id="xj7CRVUtzKx-C04npIz_-24" value="&lt;font style=&quot;font-size: 24px;&quot;&gt;Admin&lt;/font&gt;" style="text;html=1;align=center;verticalAlign=middle;resizable=0;points=[];autosize=1;strokeColor=none;fillColor=none;" vertex="1" parent="1">
          <mxGeometry x="683" y="298" width="90" height="40" as="geometry" />
        </mxCell>
        <mxCell id="xj7CRVUtzKx-C04npIz_-38" style="edgeStyle=none;rounded=0;orthogonalLoop=1;jettySize=auto;html=1;exitX=0.5;exitY=0.5;exitDx=0;exitDy=0;exitPerimeter=0;entryX=1;entryY=0;entryDx=0;entryDy=0;" edge="1" parent="1" source="xj7CRVUtzKx-C04npIz_-36" target="xj7CRVUtzKx-C04npIz_-10">
          <mxGeometry relative="1" as="geometry" />
        </mxCell>
        <mxCell id="xj7CRVUtzKx-C04npIz_-39" style="edgeStyle=none;rounded=0;orthogonalLoop=1;jettySize=auto;html=1;exitX=0.5;exitY=0.5;exitDx=0;exitDy=0;exitPerimeter=0;entryX=1;entryY=0;entryDx=0;entryDy=0;" edge="1" parent="1" source="xj7CRVUtzKx-C04npIz_-36" target="xj7CRVUtzKx-C04npIz_-13">
          <mxGeometry relative="1" as="geometry" />
        </mxCell>
        <mxCell id="xj7CRVUtzKx-C04npIz_-40" style="edgeStyle=none;rounded=0;orthogonalLoop=1;jettySize=auto;html=1;exitX=0.5;exitY=0.5;exitDx=0;exitDy=0;exitPerimeter=0;entryX=1;entryY=1;entryDx=0;entryDy=0;" edge="1" parent="1" source="xj7CRVUtzKx-C04npIz_-36" target="xj7CRVUtzKx-C04npIz_-2">
          <mxGeometry relative="1" as="geometry" />
        </mxCell>
        <mxCell id="xj7CRVUtzKx-C04npIz_-41" style="edgeStyle=none;rounded=0;orthogonalLoop=1;jettySize=auto;html=1;exitX=0.5;exitY=0.5;exitDx=0;exitDy=0;exitPerimeter=0;entryX=1;entryY=1;entryDx=0;entryDy=0;" edge="1" parent="1" source="xj7CRVUtzKx-C04npIz_-36" target="xj7CRVUtzKx-C04npIz_-5">
          <mxGeometry relative="1" as="geometry" />
        </mxCell>
        <mxCell id="xj7CRVUtzKx-C04npIz_-36" value="Actor" style="shape=umlActor;verticalLabelPosition=bottom;verticalAlign=top;html=1;outlineConnect=0;" vertex="1" parent="1">
          <mxGeometry x="700" y="640" width="70" height="130" as="geometry" />
        </mxCell>
        <mxCell id="xj7CRVUtzKx-C04npIz_-37" value="&lt;font style=&quot;font-size: 24px;&quot;&gt;Kepala Kantor&lt;/font&gt;" style="text;html=1;align=center;verticalAlign=middle;resizable=0;points=[];autosize=1;strokeColor=none;fillColor=none;" vertex="1" parent="1">
          <mxGeometry x="645" y="780" width="180" height="40" as="geometry" />
        </mxCell>
        <mxCell id="xj7CRVUtzKx-C04npIz_-43" value="" style="endArrow=none;html=1;rounded=0;" edge="1" parent="1">
          <mxGeometry width="50" height="50" relative="1" as="geometry">
            <mxPoint x="290" y="1083.076923076923" as="sourcePoint" />
            <mxPoint x="290" y="10" as="targetPoint" />
          </mxGeometry>
        </mxCell>
        <mxCell id="xj7CRVUtzKx-C04npIz_-44" value="" style="endArrow=none;html=1;rounded=0;" edge="1" parent="1">
          <mxGeometry width="50" height="50" relative="1" as="geometry">
            <mxPoint x="650" y="10" as="sourcePoint" />
            <mxPoint x="290" y="10" as="targetPoint" />
          </mxGeometry>
        </mxCell>
        <mxCell id="xj7CRVUtzKx-C04npIz_-45" value="" style="endArrow=none;html=1;rounded=0;" edge="1" parent="1">
          <mxGeometry width="50" height="50" relative="1" as="geometry">
            <mxPoint x="650.5" y="1080" as="sourcePoint" />
            <mxPoint x="290.5" y="1080" as="targetPoint" />
          </mxGeometry>
        </mxCell>
        <mxCell id="xj7CRVUtzKx-C04npIz_-46" value="" style="endArrow=none;html=1;rounded=0;" edge="1" parent="1">
          <mxGeometry width="50" height="50" relative="1" as="geometry">
            <mxPoint x="650" y="1083.076923076923" as="sourcePoint" />
            <mxPoint x="650" y="10" as="targetPoint" />
          </mxGeometry>
        </mxCell>
      </root>
    </mxGraphModel>
  </diagram>
</mxfile>
